<?xml version="1.0" encoding="UTF-8" standalone="no"?>
<!DOCTYPE svg PUBLIC "-//W3C//DTD SVG 1.1//EN" "http://www.w3.org/Graphics/SVG/1.1/DTD/svg11.dtd">
<svg width="100%" height="100%" viewBox="0 0 2000 900" version="1.1" xmlns="http://www.w3.org/2000/svg" xmlns:xlink="http://www.w3.org/1999/xlink" xml:space="preserve" xmlns:serif="http://www.serif.com/" style="fill-rule:evenodd;clip-rule:evenodd;stroke-linejoin:round;stroke-miterlimit:1.41421;">
    <path d="M1844.6,663.196L1834.88,675.339C1834.88,675.339 1817.22,662.07 1798.15,662.484C1776.69,662.949 1754.2,677.558 1753.05,714.608C1752.51,731.938 1758.48,744.478 1765.55,752.944C1773.5,762.474 1783.36,766.845 1797.11,767.08C1825.74,767.571 1836.71,752.691 1836.71,752.691L1846.93,763.096C1846.93,763.096 1834.51,780.906 1800.86,783.018C1772.17,784.431 1734.21,767.687 1734.21,711.941C1735.45,662.199 1773.67,644.661 1803.35,645.934C1827.66,646.976 1844.6,663.196 1844.6,663.196ZM1504.46,781.696L1488.79,781.696L1488.79,647.362L1501.32,647.162L1580.52,749.962L1580.52,647.762L1596.52,647.762L1596.52,781.162L1583.32,781.162L1504.46,678.962L1504.46,781.696ZM1342.7,781.165L1323.84,781.165L1323.84,647.067L1342.7,647.101L1342.7,781.165ZM1555.67,409.276L1522.21,409.276L1522.21,379.609C1522.21,379.609 1522.21,363.109 1513.05,350.776C1503.88,338.443 1491.68,334.519 1481.51,332.686L1406.43,332.686C1406.43,332.686 1384.76,332.199 1370.06,349.847C1356.32,366.33 1357.49,394.562 1357.49,394.562L1357.49,512.605C1357.49,512.605 1356.32,540.837 1370.06,557.32C1384.74,574.935 1406.35,574.483 1406.43,574.482L1481.51,574.482C1491.68,572.648 1503.88,568.724 1513.05,556.391C1522.21,544.058 1522.21,527.558 1522.21,527.558L1522.21,497.891L1555.67,497.891L1555.67,531.391C1555.67,555.141 1544.92,576.891 1533.34,587.808C1520.72,599.699 1491.34,604.558 1491.34,604.558C1491.34,604.558 1419.59,605.558 1400.34,604.558C1381.09,603.558 1356.59,599.808 1338.59,574.808C1320.59,549.808 1324.09,506.308 1324.09,506.308L1324.09,400.859C1324.09,400.859 1320.59,357.359 1338.59,332.359C1356.59,307.359 1381.09,303.609 1400.34,302.609C1419.59,301.609 1491.34,302.609 1491.34,302.609C1491.34,302.609 1520.72,307.468 1533.34,319.359C1544.92,330.276 1555.67,352.026 1555.67,375.776L1555.67,409.276ZM1846.61,601.765L1812.01,601.765L1784.41,526.365L1634.61,526.365L1606.36,601.79L1573.81,601.498L1682.14,305.831L1737.14,305.831L1846.61,601.765ZM1280.69,601.627L1073.03,601.627L1073.03,306.293L1280.03,306.16L1280.03,337.36L1105.23,337.36L1105.23,434.627L1275.03,434.627L1275.03,464.293L1105.36,464.293L1105.36,570.96L1280.69,570.96L1280.69,601.627ZM766.009,601.401L766.009,306.276C766.009,306.276 826.495,306.685 922.295,305.685C1018.12,304.685 1010.33,392.643 1010.33,392.643L1010.13,519.693C1010.13,519.693 1009.04,552.821 993.684,573.393C973.456,604.61 922.105,601.408 921.997,601.401L766.009,601.401ZM159.009,601.401L159.009,306.276C159.009,306.276 219.495,306.685 315.295,305.685C411.115,304.685 403.334,392.643 403.334,392.643L403.134,519.693C403.134,519.693 402.041,552.821 386.684,573.393C366.456,604.61 315.105,601.408 314.997,601.401L159.009,601.401ZM798.684,335.487L798.684,573.202L916.398,573.202C916.398,573.202 944.77,573.202 959.17,559.802C973.57,546.402 974.77,515.002 974.77,515.002L974.77,395.402C974.77,395.402 976.87,365.335 959.303,348.735C942.828,334.885 918.77,336.002 918.77,336.002L798.684,335.487ZM191.684,335.487L191.684,573.202L309.398,573.202C309.398,573.202 337.77,573.202 352.17,559.802C366.57,546.402 367.77,515.002 367.77,515.002L367.77,395.402C367.77,395.402 369.87,365.335 352.303,348.735C335.828,334.885 311.77,336.002 311.77,336.002L191.684,335.487ZM721.707,89.733L718.764,75.328C718.476,73.916 719.388,72.535 720.8,72.246L731.677,70.024C733.089,69.736 734.47,70.648 734.758,72.061L737.719,86.554L756.6,82.805C758.593,82.409 760.532,83.706 760.928,85.699L763.975,101.044C764.223,102.297 763.804,103.528 762.963,104.368C763.951,104.732 764.734,105.583 764.963,106.689L767.234,117.664C767.587,119.368 766.49,121.037 764.786,121.39L567.125,162.291L575.642,204.306C577.723,203.843 579.836,203.373 581.983,202.897C674.047,182.45 684.989,271.474 684.989,271.474L711.424,397.824C711.424,397.824 717.315,430.981 706.837,454.55C693.9,489.692 643.529,499.683 643.423,499.698L615.934,505.549L570.007,516.05C569.904,516.079 519.794,527.304 493.754,500.393C474.642,483.072 466.625,450.364 466.625,450.364L439.722,324.113C439.722,324.113 414.387,240.409 502.78,220.476L502.761,220.386C511.851,218.446 521.233,216.395 531.255,214.18L522.605,171.504L327.005,211.979C325.301,212.331 323.632,211.235 323.279,209.531L321.008,198.555C320.775,197.429 321.176,196.317 321.967,195.591C320.692,195.218 319.664,194.166 319.387,192.774L316.341,177.429C315.945,175.436 317.242,173.497 319.234,173.101L337.457,169.483L334.514,155.078C334.226,153.666 335.138,152.285 336.55,151.996L347.427,149.774C348.839,149.486 350.22,150.398 350.508,151.811L353.469,166.304L372.35,162.555C374.343,162.159 376.282,163.456 376.678,165.449L379.725,180.794C379.899,181.67 379.746,182.535 379.351,183.264L705.833,115.705C704.739,115.248 703.885,114.273 703.637,113.024L700.591,97.679C700.195,95.686 701.492,93.747 703.484,93.351L721.707,89.733ZM1715.01,337.898L1704.21,337.898L1646.01,496.498L1772.81,496.498L1715.01,337.898ZM574.882,483.051L574.873,483.015L632.371,470.05C632.371,470.05 659.693,464.29 670.751,448.045C681.81,431.8 676.385,400.339 676.385,400.339L651.318,281.437C651.318,281.437 647.039,251.119 626.644,238.182C607.876,227.758 579.942,233.752 579.942,233.752L523.718,246.296L520.551,247.142C520.551,247.142 492.579,252.953 479.627,270.075C466.203,290.153 474.546,319.613 474.546,319.613L499.69,438.499C499.69,438.499 507.447,469.467 524.129,479.855C540.812,490.242 568.129,484.465 568.129,484.465L574.882,483.051ZM294.739,164.535C315.954,160.244 333.546,158.585 334,160.832C334.455,163.079 317.6,168.386 296.386,172.677C275.172,176.968 257.58,178.627 257.126,176.38C256.671,174.133 273.525,168.826 294.739,164.535ZM390.989,144.91C412.204,140.619 429.796,138.96 430.25,141.207C430.705,143.454 413.85,148.761 392.636,153.052C371.422,157.343 353.83,159.002 353.376,156.755C352.921,154.508 369.775,149.201 390.989,144.91ZM678.989,84.785C700.204,80.494 717.796,78.835 718.25,81.082C718.704,83.329 701.85,88.636 680.636,92.927C659.422,97.218 641.83,98.877 641.376,96.63C640.921,94.383 657.775,89.076 678.989,84.785ZM775.239,65.16C796.454,60.869 814.046,59.21 814.5,61.457C814.954,63.704 798.1,69.011 776.886,73.302C755.672,77.593 738.08,79.252 737.626,77.005C737.171,74.758 754.025,69.451 775.239,65.16Z" style="fill:white;"/>
</svg>
